<svg xmlns="http://www.w3.org/2000/svg" width="512" height="512" viewBox="0 0 512 512">
  <defs>
    <linearGradient id="g" x1="0" y1="0" x2="1" y2="1">
      <stop offset="0" stop-color="#1d8f66"/>
      <stop offset="1" stop-color="#0a4a35"/>
    </linearGradient>
  </defs>
  <rect width="512" height="512" fill="url(#g)"/>
  <!-- колба -->
  <g transform="translate(256 262)">
    <path d="M-44 -118 v92 L-118 86 a44 44 0 0 0 38 70 h160 a44 44 0 0 0 38 -70 L42 -26 V-118 z"
          fill="rgba(255,255,255,0.96)" stroke="rgba(255,255,255,0.96)" stroke-width="2" stroke-linejoin="round"/>
    <path d="M-86 40 Q-94 64 -100 86 a44 44 0 0 0 38 70 h160 a44 44 0 0 0 38 -70 Q94 64 86 40 Z"
          fill="#8fe9c4"/>
    <circle cx="-30" cy="96" r="10" fill="rgba(255,255,255,0.85)"/>
    <circle cx="6" cy="112" r="7" fill="rgba(255,255,255,0.75)"/>
    <circle cx="34" cy="92" r="6" fill="rgba(255,255,255,0.7)"/>
    <line x1="-62" y1="-118" x2="60" y2="-118" stroke="rgba(255,255,255,0.96)" stroke-width="20" stroke-linecap="round"/>
  </g>
</svg>
